solid Building
  facet normal 0 0 -1
    outer loop
      vertex 28 -28 0
      vertex -28 -28 0
      vertex 28 28 0
    endloop
  endfacet
  facet normal 0 0 -1
    outer loop
      vertex -28 -28 0
      vertex -28 28 0
      vertex 28 28 0
    endloop
  endfacet
  facet normal 0 0 1
    outer loop
      vertex -28 -28 170
      vertex 28 -28 170
      vertex -28 28 170
    endloop
  endfacet
  facet normal 0 0 1
    outer loop
      vertex 28 -28 170
      vertex 28 28 170
      vertex -28 28 170
    endloop
  endfacet
  facet normal 1 0 0
    outer loop
      vertex 28 28 170
      vertex 28 -28 170
      vertex 28 28 0
    endloop
  endfacet
  facet normal 1 0 0
    outer loop
      vertex 28 -28 170
      vertex 28 -28 0
      vertex 28 28 0
    endloop
  endfacet
  facet normal 0 -1 0
    outer loop
      vertex 28 -28 170
      vertex -28 -28 170
      vertex 28 -28 0
    endloop
  endfacet
  facet normal 0 -1 0
    outer loop
      vertex -28 -28 170
      vertex -28 -28 0
      vertex 28 -28 0
    endloop
  endfacet
  facet normal 0 1 0
    outer loop
      vertex -28 28 170
      vertex 28 28 170
      vertex -28 28 0
    endloop
  endfacet
  facet normal 0 1 0
    outer loop
      vertex 28 28 170
      vertex 28 28 0
      vertex -28 28 0
    endloop
  endfacet
  facet normal -1 0 0
    outer loop
      vertex -28 -28 170
      vertex -28 28 170
      vertex -28 -28 0
    endloop
  endfacet
  facet normal -1 0 0
    outer loop
      vertex -28 28 170
      vertex -28 28 0
      vertex -28 -28 0
    endloop
  endfacet
endsolid Building
